<svg id="_x31_" enable-background="new 0 0 24 24" height="512" viewBox="0 0 24 24" width="512" xmlns="http://www.w3.org/2000/svg"><g><g><path d="m21.5 24h-19c-1.378 0-2.5-1.121-2.5-2.5v-19c0-1.379 1.122-2.5 2.5-2.5h19c1.378 0 2.5 1.121 2.5 2.5v19c0 1.379-1.122 2.5-2.5 2.5zm-19-23c-.827 0-1.5.673-1.5 1.5v19c0 .827.673 1.5 1.5 1.5h19c.827 0 1.5-.673 1.5-1.5v-19c0-.827-.673-1.5-1.5-1.5z"/></g></g><g><g><g><path d="m10.71 18.977c-.28 0-.547-.097-.763-.279l-5.033-4.256c-.241-.204-.387-.488-.411-.802-.024-.312.076-.615.283-.854l1.327-1.528c.422-.485 1.167-.542 1.659-.126l2.54 2.147 6.523-7.831c.413-.495 1.156-.566 1.656-.161l1.576 1.277c.246.199.397.481.428.794s-.064.617-.266.858l-8.607 10.335c-.203.243-.489.393-.806.42-.035.005-.071.006-.106.006zm-.117-1.043c.05.042.105.047.136.042.028-.002.083-.014.125-.064l8.607-10.335c.037-.044.042-.09.039-.121s-.017-.076-.062-.113l-1.576-1.277c-.077-.062-.195-.052-.258.024l-6.845 8.218c-.085.103-.208.166-.341.178-.132.008-.265-.031-.366-.116l-2.925-2.473c-.077-.064-.192-.057-.258.019l-1.327 1.528c-.038.043-.043.09-.041.121s.015.076.06.114z"/></g></g></g></svg>